PathFileType	4	(X/Y/Z)	35_2_102_p1_0-422.trc
DataRate	CameraRate	NumFrames	NumMarkers	Units	OrigDataRate	OrigDataStartFrame	OrigNumFrames
41.0	41.0	7	27	m	41.0	0	423
Frame#	Time	RHip			RKnee			RAnkle			RBigToe			RSmallToe			RHeel			LHip			LKnee			LAnkle			LBigToe			LSmallToe			LHeel			Neck			Head			Nose			RShoulder			RElbow			RWrist			RThumb			RIndex			RPinky			LShoulder			LElbow			LWrist			LThumb			LIndex			LPinky			
		X1	Y1	Z1	X2	Y2	Z2	X3	Y3	Z3	X4	Y4	Z4	X5	Y5	Z5	X6	Y6	Z6	X7	Y7	Z7	X8	Y8	Z8	X9	Y9	Z9	X10	Y10	Z10	X11	Y11	Z11	X12	Y12	Z12	X13	Y13	Z13	X14	Y14	Z14	X15	Y15	Z15	X16	Y16	Z16	X17	Y17	Z17	X18	Y18	Z18	X19	Y19	Z19	X20	Y20	Z20	X21	Y21	Z21	X22	Y22	Z22	X23	Y23	Z23	X24	Y24	Z24	X25	Y25	Z25	X26	Y26	Z26	X27	Y27	Z27	
0	0.0	0.3828778596837383	0.6453845596612023	0.44546356417527133	0.3717758155234286	0.8921271089375719	0.8199704223056677	0.38325820852281495	1.1733504360899114	1.1891384238457785	0.3498517342124479	0.9771370945531145	1.2894734817123195	0.40740462818306267	0.9720044270029712	1.2832442368685282	0.36226341762958225	1.2826867232193189	1.2101764023608212	0.1520790977764644	0.6858102759585673	0.44813477972029636	0.16400545678098566	0.9195780133403727	0.815738295225119	0.17193247357801422	1.1396006190457646	1.1927341461586376	0.1868155534551692	0.9138078300269611	1.2706882626927385	0.13818884042710192	0.9594387679651449	1.2694760175831312	0.19130860722097526	1.1959904094398612	1.2272150669804243	0.27208324659573374	0.40365898504236203	-0.039707879865063675	0.22824095305955214	0.27668117796822184	-0.24995815884317632	0.24488125125825877	0.24843709629892066	-0.08390936311505591	0.4246806254594313	0.4131479655572259	0.03965768720497485	0.4612115566492627	0.4834881311287484	0.3071124463095352	0.3159986058608695	0.4575363395038323	0.5118190607257609	0.23031253385085176	0.5094521041955624	0.5712103636268826	0.22031028458623125	0.544006769439301	0.5793939596847633	0.24124639674190762	0.5619968383953149	0.5843877363169658	0.10960991332832257	0.4334541742840899	0.04145350080051856	0.07532341911009832	0.5210855440642679	0.2765563219465511	0.17188768744916622	0.4590604002472515	0.4798284059024757	0.26609474589980353	0.4836479630173682	0.550108381722633	0.26304060493973486	0.4797413354780899	0.5681074506402811	0.22829891891893073	0.46843688262158667	0.5911570737404812
1	0.024390243902439025	0.3823576180575692	0.6421271607023296	0.44161036633583933	0.36604082431677054	0.8866489899725435	0.8125175545641766	0.3871102553329531	1.152884709380107	1.1879423600780015	0.34508736212656904	0.9615515017080357	1.2890897196077327	0.4103302350092574	0.9548790660928878	1.2821648069331308	0.3623987643917205	1.282732926958151	1.2102870621754716	0.15200999398348788	0.6854681500605441	0.4480986232342262	0.16396902223947293	0.919621545089852	0.8157633954301916	0.17196896461654138	1.1395788837902254	1.1926950173994013	0.18678561150366838	0.9140953316608055	1.2706174838443114	0.13447787289461052	0.9741963936522531	1.2679131924190123	0.19137235288720228	1.1968808416051981	1.227401368817765	0.27214152600744534	0.40361401381454554	-0.03969894228048255	0.23281173770444474	0.27804732487341	-0.24772387099237106	0.24494432778380845	0.24852464349027312	-0.08398474045696482	0.42455998807727124	0.41308916956992886	0.03965890282625269	0.46098358397307165	0.48271538273106335	0.30349479544672275	0.3159857908953192	0.45742837711874257	0.5117694592476978	0.23032953630928654	0.5091366546133149	0.5712778073055096	0.2210766466412002	0.5470432099755177	0.5830285491022372	0.24121160976387568	0.562667711005334	0.5846660691777151	0.10938743536692981	0.43108867910566084	0.03859320858694639	0.07927871469543953	0.5222539485895809	0.27587728288490265	0.17492853889956184	0.4711274241018775	0.477526103314138	0.26308727505296475	0.48375367735681285	0.549871313217767	0.26318032804345687	0.4903119085712518	0.5665039078813506	0.22901618241415334	0.47046004604785463	0.5954110184152218
2	0.04878048780487805	0.3829392470511716	0.6451926541725492	0.4450814841284857	0.37056632314648213	0.8881509295826142	0.8121892339902439	0.38822602414025287	1.1568690198533709	1.1922768643076893	0.3471259706667121	0.9629678713133852	1.2898861273840998	0.4102580934742369	0.9549041109770063	1.2823056623017417	0.3623562551932608	1.2825061787760585	1.210304775077634	0.15183523905069643	0.6846868641749094	0.44447407514204956	0.16398566905995576	0.9196529064346112	0.8157204608558154	0.1767981255851055	1.1423944203073526	1.1928201724749092	0.1827728490721404	0.9306092971262326	1.2722282027644796	0.1345067260098092	0.9743423485821706	1.2679289209320113	0.18677537705761527	1.217004646172402	1.2288017615091316	0.2721358618009736	0.40364485151036594	-0.03970968353341843	0.23278262878919814	0.277897466717306	-0.24768447520590792	0.2449169203160606	0.2485638111371494	-0.08396449279679721	0.42461355964723174	0.4131619872688679	0.03964766515653518	0.46047252396602206	0.4802608721501754	0.3003009223033445	0.31598297786705154	0.4573495533942964	0.5118495862283344	0.2304663653689488	0.5089452679415939	0.5711977683977771	0.22483151235000737	0.5329207533107895	0.5843798820343413	0.23315956935118481	0.5475466287891269	0.5825901319454885	0.10939604262067362	0.43125011721971845	0.038508631838502436	0.07548450250323784	0.520817315543133	0.2763305618524115	0.17179294936486073	0.4590651178240652	0.4797974062459291	0.2630856398178017	0.4836026294997283	0.5498669821350879	0.2631725304356413	0.4901711918406872	0.5664775584883859	0.2290937587118678	0.4705138282752421	0.5952851942119751
3	0.07317073170731707	0.38290508702334275	0.6453377484975589	0.44509779918446807	0.37153909218611947	0.8918268457541272	0.816245795447629	0.38710719101273516	1.1529038800974465	1.1879513436452787	0.34603445591626636	0.9590298674351194	1.2851280354827785	0.4102955378207006	0.9545579269854166	1.2822479396192876	0.36238478916498557	1.2826459539576065	1.210287236428548	0.1517314181587	0.6846531258448275	0.444629079376324	0.16404298195687805	0.91951981634809	0.8158045840992796	0.17684694587199654	1.1423739027022886	1.1928367418437176	0.18688135364743666	0.9138756906935113	1.2706455968903883	0.13752590656106417	0.9899611635919678	1.2689466719998392	0.19503765563514003	1.212642803342869	1.2282465364491266	0.27213660448019245	0.4036647671745056	-0.03968131343488136	0.23275936978651537	0.27789891648874676	-0.24768672582921236	0.24492200138297873	0.24855192397618758	-0.08394205832533684	0.4246014100229114	0.4129809293441903	0.039685536384211205	0.4610891754258937	0.48284405351095505	0.30338534146777857	0.31596607385693753	0.45737095905082953	0.5118546090952112	0.2305578248442331	0.494999849542412	0.5696150817263551	0.2289969068516163	0.5342331724343135	0.5841546167572291	0.23670836803865553	0.5600768255690879	0.5809618529167252	0.10923971533198948	0.43003513500157414	0.035150767453893554	0.07536997208903216	0.5208686522420239	0.27641439524239614	0.17491479400241472	0.4708832375470357	0.4775646181868756	0.26293842547375385	0.48333610461094234	0.5501424220726642	0.25950765739061377	0.4785831643266685	0.568256396476547	0.22889012768843006	0.46888412510398164	0.5908541476502619
4	0.0975609756097561	0.3829298873942548	0.645392310559099	0.4451059730094502	0.3761527183262719	0.906815091020004	0.8152090921427884	0.3870809867351101	1.152874625263242	1.1879510260931374	0.35059796647593244	0.974630994280689	1.2862415862715244	0.40686392849824043	0.9718960841005676	1.2838880343030137	0.36226064619595816	1.2823860312212458	1.2102148305907483	0.15184948532829848	0.6848461781569194	0.44449242915075654	0.16400689598966584	0.9196383424705893	0.8158932198225546	0.17105097942181602	1.1425497747934616	1.1971275360871547	0.18983173129942252	0.9289350270799297	1.2718199673644424	0.13748031793296223	0.9903429123951533	1.2690332082781834	0.19490315503833405	1.2128303616590215	1.228530821043837	0.27214348257322574	0.403659440673959	-0.039672718103957214	0.23279256355218558	0.2779340816238281	-0.2477418066526899	0.2449144218012739	0.24860170142113303	-0.08395246666508062	0.424603428933161	0.4130074034234943	0.039694094932044226	0.4610561828740071	0.4827808729452626	0.3034378152513629	0.31595512993839214	0.45734331780101184	0.5118430139724727	0.22643208289746997	0.4937930212408259	0.5696563020018994	0.224145250837084	0.529891355871741	0.5808998343159908	0.23674314451645231	0.5598041349236681	0.5809139711606863	0.11222261471904771	0.44141759232988914	0.03116590005090866	0.07547536881781743	0.5208141821593367	0.27633290590994825	0.17483654606051957	0.4710769608764212	0.4774908550504128	0.25887985129574465	0.49608795767314734	0.5480973540301687	0.2593726407078429	0.4931339537676777	0.5660901471196842	0.22852262498707454	0.46860701190846166	0.5910696048305415
5	0.12195121951219512	0.38296835524337824	0.64513188318249	0.44492006249802435	0.3751789942423661	0.9032761992817678	0.8112656483107907	0.3832885043399891	1.1732439238897703	1.1891913903223115	0.3506719813711476	0.9810175863922143	1.2952086155324405	0.41476599848873547	0.9712321109628669	1.2833922363903616	0.36234022927269366	1.2826589425393886	1.2103103584819261	0.15177794190741134	0.6848242843878994	0.44442970475141313	0.16408187044903738	0.9196480802140587	0.8158103176566981	0.1796218718215246	1.1538634133258583	1.1888778839916503	0.18989777802109978	0.9291434983275911	1.271882922873088	0.13734066638613251	0.9907999877995498	1.2691661759140929	0.20064157437101696	1.2181409414568054	1.2283058381065988	0.2721380336725509	0.4035999146848526	-0.039668160917526035	0.2327728016417295	0.27768832744778	-0.24775436774075418	0.24493282076795422	0.24847214268966045	-0.08391092338946687	0.42465614116163436	0.41323409208662415	0.039687551805090565	0.46098019970352283	0.4828122755914278	0.3034828479981269	0.31537712851695604	0.45507932832001063	0.5086370101249589	0.22661264964664246	0.5222226722759554	0.569273929632677	0.22008004273600842	0.5442253063848705	0.5788934361226213	0.23645642239674622	0.5606590825082381	0.5808376823851853	0.11246002406601503	0.44279759847980493	0.03451179355344588	0.07538258713417187	0.5210058373038734	0.27635492269051576	0.17491045040586084	0.47113146232102376	0.4776025900988462	0.2661740132300828	0.4838462899805186	0.5498852699966474	0.2627008923607795	0.5062774996384656	0.5674196002254743	0.22951085104752766	0.47287390014172453	0.5977928504659632
6	0.14634146341463414	0.38229907678535807	0.6424035955923544	0.4415794460048507	0.3752077256372506	0.9029811273416177	0.8112556739323465	0.3843498166951622	1.1772762449229948	1.1935742588209264	0.3463047113194807	0.9655116560761309	1.29350721375116	0.4070344114698826	0.9723732437082557	1.2838095720769642	0.35721329601485474	1.265334770936704	1.2094735274702306	0.15172084596565716	0.684999325573552	0.44435691352372353	0.1640629149722454	0.9197577047370857	0.8156907420909314	0.17717033814781535	1.142154030542935	1.192655146561544	0.18581318834667387	0.945781527045485	1.2733629675371014	0.13735433519794846	0.9909239547840446	1.2691954263727936	0.20076506947617057	1.2175803575884963	1.2280632568501963	0.2721366873363891	0.40362762882968123	-0.039680620065195765	0.2327634707929255	0.27774079591677814	-0.24765790385922493	0.2449568081383305	0.24845366750480757	-0.08389122755670937	0.42466910633495625	0.4133111355642616	0.03967407132363415	0.4610790184724805	0.4825975615898535	0.30340497047854625	0.3160224912765835	0.4574209043102648	0.511799977293891	0.23043037912304584	0.5089356377859485	0.5711223979069908	0.22397297638605299	0.5300756571647279	0.5806180673248988	0.2364311708245321	0.5600106382503706	0.580626934487089	0.11245018304072976	0.44282162822773546	0.034490579990063705	0.07535594066026353	0.5211816893102464	0.27614140278854665	0.1748357281812456	0.4711916800839238	0.4774868322710482	0.26633630419435783	0.48336272423519827	0.5496005414497339	0.2634269338263792	0.4797761734676993	0.567781886475821	0.22905374260966613	0.469516904691194	0.5907107214901284
